<svg width="53" height="55" viewBox="0 0 53 55" fill="none" xmlns="http://www.w3.org/2000/svg">
<g id="Group 62">
<rect id="Rectangle 56" width="53" height="54.1648" rx="10" fill="white"/>
<g id="Group 52">
<path id="Vector" d="M6.40625 19.6787L15.2946 26.4747V15.9032L12.0428 13.4221C9.11611 11.1567 6.40625 13.4221 6.40625 16.2268" fill="#C5221F"/>
<path id="Vector_2" d="M45.4284 19.6786L36.54 26.4746V15.903L39.7919 13.422C42.7185 11.1566 45.4284 13.422 45.4284 16.2267" fill="#FBBC04"/>
<path id="Vector_3" d="M15.2946 41.5385V26.2205L6.40625 19.4244V38.3023C6.40625 40.4597 7.49019 41.5385 9.65808 41.5385" fill="#4285F4"/>
<path id="Vector_4" d="M14.8613 26.1124L25.9176 34.4186L36.9738 26.1124V15.5408L25.9176 23.847L14.8613 15.5408" fill="#EA4335"/>
<path id="Vector_5" d="M36.54 41.5385V26.2205L45.4284 19.4244V38.3023C45.4284 40.4597 44.3444 41.5385 42.1765 41.5385" fill="#34A853"/>
</g>
</g>
</svg>
