<svg width="53" height="53" viewBox="0 0 53 53" fill="none" xmlns="http://www.w3.org/2000/svg">
<g id="Group 66">
<circle id="Ellipse 10" cx="26.5" cy="26.5" r="26.5" fill="white"/>
<path id="Vector" d="M33.6641 30.7438L32.7464 31.7052C32.7464 31.7052 30.5654 33.9904 24.6122 27.7529C18.6591 21.5153 20.8401 19.2302 20.8401 19.2302L21.4179 18.6248C22.8413 17.1334 22.9755 14.739 21.7336 12.9909L19.1932 9.41514C17.6561 7.25159 14.6859 6.96579 12.9241 8.81172L9.76197 12.1249C8.88839 13.0402 8.30299 14.2267 8.37398 15.5429C8.5556 18.9102 10.0014 26.1551 18.0693 34.6083C26.6248 43.5724 34.6525 43.9287 37.9353 43.6063C38.9736 43.5042 39.8766 42.9471 40.6043 42.1846L43.4662 39.186C45.398 37.162 44.8533 33.6921 42.3816 32.2762L38.5326 30.0714C36.9097 29.1417 34.9325 29.4147 33.6641 30.7438Z" fill="#018D2D"/>
</g>
</svg>
