<svg width="48" height="49" viewBox="0 0 48 49" fill="none" xmlns="http://www.w3.org/2000/svg">
<g id="Page-1">
<g id="Dribbble-Light-Preview">
<g id="icons">
<path id="whatsapp-[#128]" fill-rule="evenodd" clip-rule="evenodd" d="M37.9704 34.4345C37.392 36.0639 35.0928 37.4119 33.2592 37.8061C32.004 38.0713 30.3672 38.2811 24.852 36.0066C18.6576 33.4525 10.056 24.3549 10.056 18.3007C10.056 15.2187 11.8416 11.6298 14.964 11.6298C16.4664 11.6298 16.7976 11.659 17.292 12.8392C17.8704 14.2297 19.2816 17.6556 19.4496 18.0068C20.1432 19.4475 18.744 20.2909 17.7288 21.5452C17.4048 21.9227 17.0376 22.3309 17.448 23.0333C17.856 23.7214 19.2672 26.0103 21.3408 27.8475C24.0192 30.2224 26.1912 30.9806 26.9688 31.3031C27.5472 31.542 28.2384 31.4864 28.6608 31.0372C29.196 30.4614 29.8608 29.5061 30.5376 28.5648C31.0152 27.891 31.6224 27.8069 32.2584 28.0458C32.688 28.1939 38.148 30.7174 38.3784 31.1212C38.5488 31.4151 38.5488 32.805 37.9704 34.4345ZM24.0048 0.706787H23.9928C10.7616 0.706787 0 11.4199 0 24.5914C0 29.8142 1.69202 34.6596 4.56962 38.5898L1.57921 47.4649L10.8024 44.5318C14.5968 47.0309 19.1256 48.476 24.0048 48.476C37.236 48.476 48 37.7629 48 24.5914C48 11.4199 37.236 0.706787 24.0048 0.706787Z" fill="white"/>
</g>
</g>
</g>
</svg>
